<svg width="24" height="24" viewBox="0 0 24 24" fill="none" xmlns="http://www.w3.org/2000/svg">
<path d="M4.89404 19.6904L11.9307 5.00458C12.1538 4.53895 11.8144 4 11.298 4C11.0232 4 10.7737 4.16048 10.6597 4.41056L3.90625 19.2287C3.74171 19.5897 4.0056 20 4.40236 20C4.61218 20 4.80338 19.8796 4.89404 19.6904Z" fill="#B3B3B3" stroke="#B3B3B3" stroke-width="2"/>
<path d="M11.894 19.6904L18.9307 5.00458C19.1538 4.53895 18.8144 4 18.298 4C18.0232 4 17.7737 4.16048 17.6597 4.41056L10.9063 19.2287C10.7417 19.5897 11.0056 20 11.4024 20C11.6122 20 11.8034 19.8796 11.894 19.6904Z" fill="#B3B3B3" stroke="#B3B3B3" stroke-width="2"/>
<rect x="5.75" y="7.75" width="14.5" height="1.5" rx="0.75" fill="#B3B3B3" stroke="#B3B3B3" stroke-width="1.5"/>
<rect x="2.75" y="14.75" width="14.5" height="1.5" rx="0.75" fill="#B3B3B3" stroke="#B3B3B3" stroke-width="1.5"/>
</svg>
