<svg width="345" height="54" viewBox="0 0 345 54" fill="none" xmlns="http://www.w3.org/2000/svg">
<rect x="0.5" y="0.5" width="344" height="53" rx="9.5" fill="#121212"/>
<rect x="0.5" y="0.5" width="344" height="53" rx="9.5" stroke="white"/>
<path d="M97.7344 19.5664C100.039 19.5469 101.543 21.9297 101.543 25.7188C101.543 29.5078 100.039 31.9102 97.7344 31.8906C95.4492 31.9102 93.9648 29.5078 93.9648 25.7188C93.9648 21.9297 95.4492 19.5469 97.7344 19.5664ZM97.7344 21.3047C96.4648 21.3047 95.6836 22.9258 95.6836 25.7188C95.6836 28.5117 96.4648 30.1328 97.7344 30.1328C99.0234 30.1328 99.8242 28.5117 99.8242 25.7188C99.8242 22.9258 99.0234 21.3047 97.7344 21.3047ZM108.828 18.1602V35.6602H107.051V26.5391H104.883V34.8008H103.125V18.4922H104.883V25.0156H107.051V18.1602H108.828ZM125.508 18.6875V20.0938H122.969V23.1211H125.43V24.5469H112.598V23.1211H115.078V20.0938H112.52V18.6875H125.508ZM127.012 25.8359V27.3008H111.055V25.8359H127.012ZM125 28.668V32.6719H114.805V34.0781H125.488V35.4844H112.988V31.3633H123.164V30.0547H112.969V28.668H125ZM116.914 23.1211H121.113V20.0938H116.914V23.1211ZM148.262 18.1602V35.6602H146.504V18.1602H148.262ZM144.688 18.6094V34.8008H142.93V28.8438H139.941V27.3203H142.93V24.4688H140.234C139.385 27.4082 137.52 29.957 134.219 31.9297L133.125 30.6016C136.836 28.3945 138.623 25.4551 138.945 21.8516H133.984V20.3281H140.781C140.781 21.2266 140.713 22.0957 140.566 22.9453H142.93V18.6094H144.688ZM165.098 18.1602V28.5703H163.242V24.1367H159.98V22.6133H163.242V18.1602H165.098ZM159.238 29.0586C162.91 29.0586 165.156 30.2695 165.156 32.3594C165.156 34.4492 162.91 35.6406 159.238 35.6602C155.566 35.6406 153.301 34.4492 153.32 32.3594C153.301 30.2695 155.566 29.0586 159.238 29.0586ZM159.238 30.5039C156.68 30.5039 155.156 31.168 155.156 32.3594C155.156 33.5312 156.68 34.2148 159.238 34.1953C161.797 34.2148 163.32 33.5312 163.32 32.3594C163.32 31.168 161.797 30.5039 159.238 30.5039ZM156.777 21.2461C156.777 23.4727 158.359 25.6211 160.996 26.5195L160.039 27.9844C158.076 27.3008 156.631 25.9043 155.879 24.1758C155.107 26.1387 153.574 27.7109 151.484 28.4727L150.508 26.9883C153.223 26.0508 154.883 23.6875 154.883 21.2656V20.875H151.094V19.3711H160.527V20.875H156.777V21.2461ZM175.762 19.2148C179.434 19.2148 182.227 21.1484 182.227 24.0977C182.227 27.0469 179.434 29 175.762 28.9805C172.09 29 169.316 27.0469 169.316 24.0977C169.316 21.1484 172.09 19.2148 175.762 19.2148ZM175.762 20.7188C173.086 20.6992 171.074 22.0664 171.094 24.0977C171.074 26.1484 173.086 27.457 175.762 27.457C178.438 27.457 180.43 26.1484 180.43 24.0977C180.43 22.0664 178.438 20.6992 175.762 20.7188ZM183.809 31.8516V33.3945H167.793V31.8516H183.809ZM201.094 32.0078V33.5703H185.078V32.0078H192.129V28.9414H187.031V23.375H197.305V20.9141H186.992V19.3906H199.141V24.8594H188.867V27.418H199.551V28.9414H193.965V32.0078H201.094ZM213.672 22.6133C213.652 25.8164 215.586 29.0195 218.301 30.2305L217.188 31.6953C215.176 30.7383 213.584 28.7754 212.773 26.3828C211.953 28.9414 210.342 31.0605 208.242 32.0859L207.109 30.5234C209.863 29.293 211.797 25.9531 211.797 22.6133V19.625H213.672V22.6133ZM221.738 18.1602V35.6992H219.883V18.1602H221.738ZM230.645 21.3047C230.645 23.5312 232.188 25.6602 234.863 26.5586L233.926 28.0039C231.943 27.3203 230.488 25.9531 229.727 24.2344C228.965 26.1289 227.451 27.6133 225.391 28.3359L224.395 26.8906C227.129 25.9531 228.77 23.707 228.789 21.2852V20.8164H224.941V19.3125H234.414V20.8164H230.645V21.3047ZM238.281 18.1602V22.6523H240.82V24.2148H238.281V28.707H236.426V18.1602H238.281ZM238.281 29.5664V35.6602H236.426V31.0703H226.719V29.5664H238.281ZM255.449 18.1602V25.25H258.262V26.793H255.449V35.6602H253.613V18.1602H255.449ZM252.09 20.8945V22.418H241.719V20.8945H246.035V18.3945H247.891V20.8945H252.09ZM246.973 23.707C249.473 23.707 251.309 25.3867 251.328 27.7695C251.309 30.1719 249.473 31.832 246.973 31.8516C244.453 31.832 242.617 30.1719 242.617 27.7695C242.617 25.3867 244.453 23.707 246.973 23.707ZM246.973 25.2305C245.488 25.2305 244.375 26.2656 244.395 27.7695C244.375 29.293 245.488 30.3086 246.973 30.2891C248.457 30.3086 249.551 29.293 249.551 27.7695C249.551 26.2656 248.457 25.2305 246.973 25.2305ZM273.652 18.1602V35.6602H271.777V18.1602H273.652ZM268.438 20.0352C268.438 25.1523 266.25 29.6055 260.254 32.4766L259.277 30.9727C263.936 28.7559 266.201 25.6016 266.562 21.5195H260.117V20.0352H268.438Z" fill="white"/>
</svg>
