<svg width="31" height="32" viewBox="0 0 31 32" fill="none" xmlns="http://www.w3.org/2000/svg">
<path d="M0.44043 24.5755V9.04426C0.44043 8.3192 1.18793 7.83514 1.84954 8.13178L13.8495 13.512C14.2091 13.6732 14.4404 14.0305 14.4404 14.4245V29.9557C14.4404 30.6808 13.6929 31.1649 13.0313 30.8682L1.03132 25.488C0.671791 25.3268 0.44043 24.9695 0.44043 24.5755Z" fill="#9A9A9A"/>
<path d="M16.4404 14.4245V29.9557C16.4404 30.6808 17.1879 31.1649 17.8495 30.8682L29.8495 25.488C30.2091 25.3268 30.4404 24.9695 30.4404 24.5755V9.04426C30.4404 8.3192 29.6929 7.83514 29.0313 8.13178L17.0313 13.512C16.6718 13.6732 16.4404 14.0305 16.4404 14.4245Z" fill="#9A9A9A"/>
<path d="M4.00635 6.34609L15.6128 1.58293L26.9288 6.34598L15.6125 11.4068L4.00635 6.34609Z" stroke="#9A9A9A" stroke-width="2"/>
</svg>
