<svg width="345" height="54" viewBox="0 0 345 54" fill="none" xmlns="http://www.w3.org/2000/svg">
<rect width="345" height="54" rx="10" fill="#EBE700"/>
<path d="M117.511 19.9323C117.506 21.797 117.272 23.4982 116.807 25.0359C116.342 26.5737 115.522 28.0055 114.348 29.3315C113.179 30.6575 111.574 31.8246 109.534 32.8329L108.512 31.4378C110.059 30.6782 111.328 29.831 112.318 28.8964C113.312 27.9618 114.076 26.9236 114.61 25.7818L108.885 26.3204L108.623 24.7182L115.17 24.2901C115.423 23.4337 115.587 22.4853 115.66 21.4448H109.521V19.9323H117.511ZM120.197 18.1575H122.055V25.1464H124.769V26.6727H122.055V35.6367H120.197V18.1575ZM134.796 19.9323C134.792 21.797 134.557 23.4982 134.092 25.0359C133.627 26.5737 132.807 28.0055 131.633 29.3315C130.464 30.6575 128.859 31.8246 126.82 32.8329L125.798 31.4378C127.345 30.6782 128.613 29.831 129.603 28.8964C130.597 27.9618 131.362 26.9236 131.896 25.7818L126.17 26.3204L125.908 24.7182L132.455 24.2901C132.708 23.4337 132.872 22.4853 132.945 21.4448H126.806V19.9323H134.796ZM137.483 18.1575H139.34V25.1464H142.054V26.6727H139.34V35.6367H137.483V18.1575ZM150.956 19.221C152.199 19.221 153.311 19.4167 154.291 19.808C155.272 20.1948 156.039 20.7403 156.591 21.4448C157.148 22.1446 157.427 22.9526 157.427 23.8688C157.427 24.7251 157.192 25.4871 156.722 26.1547C156.257 26.8223 155.603 27.3587 154.761 27.7638C153.923 28.1644 152.961 28.4107 151.874 28.5028V31.942H159.008V33.4751H142.993V31.942H150.037V28.4959C148.955 28.4038 147.995 28.1575 147.157 27.7569C146.324 27.3564 145.672 26.8223 145.203 26.1547C144.738 25.4871 144.505 24.7251 144.505 23.8688C144.505 22.9526 144.782 22.1446 145.334 21.4448C145.891 20.7403 146.658 20.1948 147.634 19.808C148.614 19.4167 149.722 19.221 150.956 19.221ZM146.308 23.8688C146.308 24.5087 146.506 25.0704 146.902 25.5539C147.298 26.0327 147.848 26.4033 148.552 26.6657C149.257 26.9236 150.058 27.0548 150.956 27.0594C151.858 27.0548 152.661 26.9236 153.366 26.6657C154.075 26.4033 154.627 26.0327 155.023 25.5539C155.419 25.0704 155.617 24.5087 155.617 23.8688C155.617 23.2472 155.417 22.6994 155.016 22.2251C154.62 21.7463 154.068 21.378 153.359 21.1202C152.655 20.8577 151.853 20.7265 150.956 20.7265C150.062 20.7265 149.264 20.8577 148.559 21.1202C147.855 21.378 147.302 21.7463 146.902 22.2251C146.506 22.6994 146.308 23.2472 146.308 23.8688ZM176.293 33.558H160.278V32.018H167.322V28.9378H162.226V23.3715H172.502V20.913H162.191V19.4006H174.332V24.8633H164.07V27.4185H174.739V28.9378H169.159V32.018H176.293V33.558ZM188.869 22.6119C188.864 23.6662 189.057 24.7044 189.449 25.7265C189.845 26.7486 190.395 27.6556 191.099 28.4475C191.804 29.2394 192.603 29.831 193.496 30.2224L192.377 31.7003C191.383 31.2261 190.501 30.5239 189.732 29.5939C188.963 28.6593 188.371 27.5866 187.957 26.3757C187.547 27.674 186.951 28.8227 186.168 29.8218C185.386 30.8209 184.479 31.5714 183.447 32.0732L182.301 30.5262C183.203 30.1211 184.011 29.5087 184.725 28.6892C185.439 27.8697 185.996 26.9282 186.396 25.8646C186.797 24.8011 186.999 23.7169 187.004 22.6119V19.6146H188.869V22.6119ZM195.077 18.1575H196.942V35.692H195.077V18.1575ZM205.836 21.2997C205.836 22.0502 206.002 22.773 206.333 23.4682C206.67 24.1588 207.155 24.7735 207.791 25.3122C208.431 25.8508 209.188 26.2675 210.063 26.5622L209.117 27.9986C208.141 27.6625 207.296 27.1699 206.582 26.5207C205.868 25.8669 205.318 25.105 204.931 24.2348C204.545 25.1878 203.978 26.0189 203.233 26.7279C202.487 27.4369 201.605 27.971 200.588 28.3301L199.593 26.8936C200.486 26.5898 201.262 26.1524 201.92 25.5815C202.583 25.006 203.092 24.3476 203.447 23.6064C203.801 22.8651 203.981 22.0939 203.985 21.2928V20.8163H200.132V19.3177H209.614V20.8163H205.836V21.2997ZM201.914 29.5732H213.481V35.6575H211.623V31.0718H201.914V29.5732ZM211.623 18.1575H213.481V22.6533H216.016V24.221H213.481V28.703H211.623V18.1575ZM230.649 25.25H233.453V26.7901H230.649V35.6575H228.812V18.1575H230.649V25.25ZM216.92 20.8992H221.236V18.3854H223.087V20.8992H227.286V22.4116H216.92V20.8992ZM217.817 27.7776C217.817 26.9903 218.004 26.2882 218.377 25.6713C218.75 25.0543 219.268 24.5732 219.931 24.2279C220.594 23.878 221.342 23.703 222.175 23.703C222.999 23.703 223.741 23.878 224.399 24.2279C225.062 24.5732 225.58 25.0566 225.953 25.6782C226.33 26.2951 226.519 26.9949 226.519 27.7776C226.519 28.5649 226.33 29.267 225.953 29.884C225.58 30.5009 225.062 30.982 224.399 31.3273C223.741 31.6727 222.999 31.8453 222.175 31.8453C221.342 31.8453 220.594 31.6727 219.931 31.3273C219.268 30.982 218.75 30.5009 218.377 29.884C218.004 29.267 217.817 28.5649 217.817 27.7776ZM219.592 27.7776C219.588 28.2749 219.696 28.7145 219.917 29.0967C220.138 29.4788 220.444 29.7758 220.835 29.9876C221.231 30.1948 221.678 30.2983 222.175 30.2983C222.663 30.2983 223.101 30.1948 223.487 29.9876C223.879 29.7758 224.185 29.4788 224.406 29.0967C224.631 28.7145 224.747 28.2749 224.751 27.7776C224.747 27.285 224.631 26.8453 224.406 26.4586C224.185 26.0718 223.879 25.7726 223.487 25.5608C223.101 25.3444 222.663 25.2362 222.175 25.2362C221.678 25.2362 221.231 25.3444 220.835 25.5608C220.444 25.7726 220.138 26.0718 219.917 26.4586C219.696 26.8453 219.588 27.285 219.592 27.7776ZM248.846 35.6575H246.981V18.1575H248.846V35.6575ZM234.467 30.9682C236.76 29.8771 238.5 28.5488 239.688 26.9834C240.881 25.4134 241.569 23.5925 241.753 21.5207H235.317V20.0428H243.645C243.636 22.7546 242.985 25.1602 241.691 27.2597C240.402 29.3591 238.321 31.0948 235.448 32.4669L234.467 30.9682Z" fill="#121212"/>
</svg>
