<svg width="393" height="114" viewBox="0 0 393 114" fill="none" xmlns="http://www.w3.org/2000/svg">
<path d="M435.042 8.33389C434.776 3.92365 430.98 0.462074 426.564 0.602256L-42.4755 15.4914C-46.8916 15.6315 -50.2556 19.3204 -49.9893 23.7306L-45.0414 105.666C-44.7751 110.076 -40.9793 113.538 -36.5633 113.398L432.476 98.5085C436.892 98.3683 440.256 94.6794 439.99 90.2692L435.042 8.33389Z" fill="#C6FF6B"/>
<path d="M260.95 82.385L271.506 32.4434H299.448L297.604 41.12H280.114L277.825 52.0852H294.119L292.241 60.7618H275.946L273.214 73.6401H290.703L288.859 82.385H260.95Z" fill="#121212"/>
<path d="M243.971 82.385L254.594 32.4434H265.047L254.389 82.385H243.971Z" fill="#121212"/>
<path d="M203.633 82.385L214.188 32.4434H224.641L219.38 56.5602L224.709 49.4208L238.817 32.4434H251.149L230.858 56.3552L240.799 82.385H229.253L222.045 62.1624L217.775 64.5536L214.052 82.385H203.633Z" fill="#121212"/>
<path d="M93 82.385L103.555 32.4434H114.008L105.263 73.6401H122.753L120.909 82.385H93Z" fill="#121212"/>
<path d="M180.37 83.0001C176.349 83.0001 172.972 82.2207 170.238 80.6619C167.527 79.1031 165.471 76.9118 164.071 74.0879C162.67 71.2413 161.97 67.9204 161.97 64.1251C161.97 61.5497 162.196 58.9743 162.647 56.3989C163.122 53.8234 163.822 51.3384 164.748 48.9437C165.697 46.549 166.883 44.3238 168.307 42.268C169.752 40.2122 171.447 38.4162 173.39 36.88C175.332 35.3438 177.535 34.1464 179.998 33.2879C182.46 32.4295 185.194 32.0002 188.198 32.0002C194.208 32.0002 198.726 33.6946 201.753 37.0833C204.803 40.4494 206.328 44.9338 206.328 50.5364C206.328 53.2248 206.102 55.8906 205.65 58.5337C205.221 61.1769 204.543 63.7071 203.617 66.1244C202.713 68.5417 201.55 70.7782 200.126 72.834C198.726 74.8673 197.065 76.652 195.145 78.1882C193.225 79.7018 191.033 80.8878 188.571 81.7463C186.131 82.5822 183.398 83.0001 180.37 83.0001ZM181.116 74.1895C182.471 74.1895 183.77 73.941 185.013 73.444C186.255 72.947 187.419 72.2354 188.503 71.3091C189.588 70.3603 190.57 69.2081 191.451 67.8526C192.355 66.4746 193.123 64.9271 193.756 63.2101C194.388 61.4706 194.874 59.5616 195.213 57.4832C195.574 55.4048 195.755 53.1796 195.755 50.8075C195.755 47.7577 195.043 45.3178 193.62 43.4879C192.219 41.658 190.13 40.7431 187.351 40.7431C185.928 40.7431 184.561 41.0255 183.251 41.5903C181.963 42.155 180.766 42.957 179.659 43.9962C178.574 45.0354 177.592 46.2667 176.711 47.6899C175.829 49.1132 175.073 50.6946 174.44 52.4341C173.808 54.1736 173.322 56.0261 172.983 57.9915C172.667 59.957 172.509 62.0015 172.509 64.1251C172.509 66.3164 172.847 68.1689 173.525 69.6825C174.203 71.1736 175.186 72.3031 176.473 73.0712C177.761 73.8168 179.309 74.1895 181.116 74.1895Z" fill="#121212"/>
<path d="M141.506 82.9999C137.485 82.9999 134.107 82.2205 131.374 80.6617C128.663 79.1029 126.607 76.9115 125.206 74.0876C123.806 71.2411 123.105 67.9202 123.105 64.1248C123.105 61.5494 123.331 58.974 123.783 56.3986C124.258 53.8232 124.958 51.3382 125.884 48.9435C126.833 46.5488 128.019 44.3236 129.442 42.2677C130.888 40.2119 132.583 38.4159 134.525 36.8797C136.468 35.3435 138.671 34.1462 141.133 33.2877C143.596 32.4292 146.329 32 149.334 32C155.343 32 159.862 33.6943 162.889 37.083C165.939 40.4491 167.464 44.9335 167.464 50.5362C167.464 53.2245 167.238 55.8903 166.786 58.5335C166.357 61.1767 165.679 63.7069 164.753 66.1242C163.849 68.5414 162.685 70.778 161.262 72.8338C159.862 74.867 158.201 76.6517 156.281 78.1879C154.361 79.7015 152.169 80.8876 149.707 81.7461C147.267 82.5819 144.533 82.9999 141.506 82.9999ZM142.252 74.1893C143.607 74.1893 144.906 73.9408 146.149 73.4438C147.391 72.9467 148.555 72.2351 149.639 71.3089C150.723 70.36 151.706 69.2079 152.587 67.8524C153.491 66.4743 154.259 64.9268 154.891 63.2099C155.524 61.4704 156.01 59.5614 156.349 57.483C156.71 55.4046 156.891 53.1794 156.891 50.8073C156.891 47.7574 156.179 45.3176 154.756 43.4877C153.355 41.6578 151.266 40.7428 148.487 40.7428C147.064 40.7428 145.697 41.0252 144.386 41.59C143.099 42.1548 141.901 42.9568 140.794 43.996C139.71 45.0352 138.727 46.2664 137.846 47.6897C136.965 49.1129 136.208 50.6943 135.576 52.4338C134.943 54.1734 134.458 56.0259 134.119 57.9913C133.802 59.9567 133.644 62.0013 133.644 64.1248C133.644 66.3162 133.983 68.1687 134.661 69.6823C135.339 71.1733 136.321 72.3029 137.609 73.071C138.897 73.8165 140.444 74.1893 142.252 74.1893Z" fill="#121212"/>
<ellipse cx="149.948" cy="60.5" rx="6.5" ry="9.5" fill="#121212"/>
<ellipse cx="190.448" cy="60.5" rx="7" ry="9.5" fill="#121212"/>
</svg>
