<svg width="118" height="80" viewBox="0 0 118 80" fill="none" xmlns="http://www.w3.org/2000/svg">
<path d="M44.4404 24.5755V9.04426C44.4404 8.3192 45.1879 7.83514 45.8495 8.13178L57.8495 13.512C58.2091 13.6732 58.4404 14.0305 58.4404 14.4245V29.9557C58.4404 30.6808 57.6929 31.1649 57.0313 30.8682L45.0313 25.488C44.6718 25.3268 44.4404 24.9695 44.4404 24.5755Z" fill="#9A9A9A"/>
<path d="M60.4404 14.4245V29.9557C60.4404 30.6808 61.1879 31.1649 61.8495 30.8682L73.8495 25.488C74.2091 25.3268 74.4404 24.9695 74.4404 24.5755V9.04426C74.4404 8.3192 73.6929 7.83514 73.0313 8.13178L61.0313 13.512C60.6718 13.6732 60.4404 14.0305 60.4404 14.4245Z" fill="#9A9A9A"/>
<path d="M48.0063 6.34609L59.6128 1.58293L70.9288 6.34598L59.6125 11.4068L48.0063 6.34609Z" stroke="#9A9A9A" stroke-width="2"/>
<path d="M37.3073 44.2562C39.1733 44.261 40.5124 45.953 40.5221 48.6215C40.5124 51.3094 39.1733 53.0014 37.3073 52.9965C35.4364 53.0014 34.0925 51.3094 34.0973 48.6215C34.0925 45.953 35.4364 44.261 37.3073 44.2562ZM35.5621 48.6215C35.5573 50.5214 36.2728 51.6236 37.3073 51.6236C38.3612 51.6236 39.0573 50.5214 39.0573 48.6215C39.0573 46.7362 38.3612 45.6291 37.3073 45.6291C36.2728 45.6291 35.5573 46.7362 35.5621 48.6215ZM42.1464 55.7086V43.3619H43.6692V48.1091H45.5739V49.3854H43.6692V55.7086H42.1464ZM50.7847 45.5083C50.7847 47.0311 51.8337 48.5539 53.8012 49.163L53.0229 50.3377C51.6162 49.893 50.601 48.9599 50.0402 47.7852C49.4794 49.0615 48.4304 50.0767 46.9704 50.5746L46.1824 49.3999C48.1742 48.7327 49.2377 47.1229 49.2425 45.5083V45.3536H46.5837V44.1305H53.3855V45.3536H50.7847V45.5083ZM47.9518 52.6098V51.3867H56.3779V55.7086H54.8551V52.6098H47.9518ZM54.8551 50.8115V43.3619H56.3779V50.8115H54.8551ZM72.7956 49.8349V51.0387H67.8985V52.107H71.4662V55.7086H69.9386V53.3349H62.7597V52.107H66.3951V51.0387H61.498V49.8349H72.7956ZM62.8999 44.817V43.6278H71.3985V46.8474H64.4372V47.8336H71.6402V49.0131H62.9289V45.7403H69.8806V44.817H62.8999ZM79.2343 43.5504C82.0479 43.5504 83.6818 44.2997 83.6818 45.663C83.6818 47.0456 82.0479 47.7949 79.2343 47.7997C76.4208 47.7949 74.7771 47.0456 74.782 45.663C74.7771 44.2997 76.4208 43.5504 79.2343 43.5504ZM73.6121 49.6754V48.462H84.8711V49.6754H73.6121ZM74.9367 51.6333V50.5021H83.4691V53.5283H76.4401V54.4468H83.8075V55.607H74.9512V52.4503H81.9705V51.6333H74.9367ZM76.3724 45.663C76.3628 46.3494 77.349 46.6637 79.2343 46.6685C81.139 46.6637 82.1204 46.3494 82.1204 45.663C82.1204 45.0297 81.139 44.672 79.2343 44.672C77.349 44.672 76.3628 45.0297 76.3724 45.663ZM26.3824 65.547C26.3824 67.1858 27.3686 68.7859 29.283 69.4434L28.4515 70.6278C27.122 70.1298 26.1697 69.1678 25.6428 67.9544C25.111 69.3128 24.1055 70.3812 22.66 70.9227L21.8479 69.7141C23.8348 69.0421 24.8499 67.3405 24.8596 65.5276V64.1209H26.3824V65.547ZM24.0958 75.4765V71.5463H25.6331V74.2438H32.5122V75.4765H24.0958ZM28.2678 67.3308V66.0932H30.7236V63.3715H32.2415V72.5373H30.7236V67.3308H28.2678ZM39.3135 64.2127V65.4406H35.9247V66.6395H39.1878V67.7997H35.9247V69.1001C37.4281 69.0856 38.4772 69.0228 39.6857 68.8052L39.8356 70.0331C38.3902 70.299 37.1961 70.3522 35.2817 70.3474H34.4599V64.2127H39.3135ZM36.0939 72.663V71.4399H44.5587V75.7086H43.0455V72.663H36.0939ZM40.406 70.8018V63.5988H41.8225V66.4558H43.1132V63.3715H44.5587V70.8888H43.1132V67.6837H41.8225V70.8018H40.406ZM59.1636 63.3619V66.9779H60.8894V68.2396H59.1636V72.3971H57.6359V63.3619H59.1636ZM49.5482 67.2873C49.5386 65.4696 51.0033 64.1837 52.8839 64.1837C54.7644 64.1837 56.205 65.4696 56.2147 67.2873C56.205 69.0905 54.7644 70.3957 52.8839 70.3957C51.0033 70.3957 49.5386 69.0905 49.5482 67.2873ZM51.042 67.2873C51.0323 68.3653 51.8493 69.0663 52.8839 69.0663C53.9281 69.0663 54.7257 68.3653 54.7305 67.2873C54.7257 66.1996 53.9281 65.5083 52.8839 65.5083C51.8493 65.5083 51.0323 66.1996 51.042 67.2873ZM51.245 75.4765V71.4496H52.7582V74.2438H59.647V75.4765H51.245ZM72.0802 63.3715V70.9903H70.6347V67.8529H69.4552V70.8356H68.0339V63.5504H69.4552V66.6153H70.6347V63.3715H72.0802ZM61.4448 65.837V64.6236H63.7797V63.4247H65.288V64.6236H67.5988V65.837H61.4448ZM61.875 68.4475C61.8702 67.1519 62.9869 66.3059 64.5339 66.3011C66.105 66.3059 67.2169 67.1519 67.2217 68.4475C67.2169 69.7141 66.105 70.5843 64.5339 70.5891C62.9869 70.5843 61.8702 69.7141 61.875 68.4475ZM62.2328 74.4227C63.8184 73.9392 64.6209 72.779 64.6209 71.6768V71.3674H66.1244V71.6768C66.1147 72.6291 66.5691 73.6153 67.6085 74.2341C68.6623 73.5767 69.1458 72.5325 69.1554 71.6768V71.3674H70.6637V71.6768C70.654 72.8419 71.4324 73.9827 73.047 74.4227L72.3364 75.5635C71.1278 75.1816 70.3205 74.4227 69.8902 73.4751C69.4987 74.4081 68.7735 75.2541 67.6375 75.6796C66.4773 75.2638 65.7473 74.471 65.3557 73.5331C64.9061 74.4323 64.1036 75.1768 62.9531 75.5635L62.2328 74.4227ZM63.2335 68.4475C63.2335 69.0905 63.7604 69.482 64.5339 69.4772C65.3122 69.482 65.844 69.0905 65.844 68.4475C65.844 67.7804 65.3122 67.4033 64.5339 67.4033C63.7604 67.4033 63.2335 67.7804 63.2335 68.4475ZM76.9864 64.2562C78.659 64.261 79.8966 65.6533 80.1142 67.9061H82.4636V63.3619H83.9719V75.7376H82.4636V69.134H80.1287C79.9691 71.5221 78.7074 73.0014 76.9864 72.9965C75.13 73.0014 73.8103 71.3094 73.82 68.6215C73.8103 65.953 75.13 64.261 76.9864 64.2562ZM75.2751 68.6215C75.2702 70.5214 75.9712 71.6236 76.9864 71.6236C78.0113 71.6236 78.7026 70.5214 78.7074 68.6215C78.7026 66.7362 78.0113 65.6291 76.9864 65.6291C75.9712 65.6291 75.2702 66.7362 75.2751 68.6215ZM97.0093 72.9675V74.2148H85.7117V72.9675H88.3222V69.8398C87.336 69.2742 86.7414 68.3895 86.7462 67.2921C86.7414 65.3246 88.6703 64.0242 91.3339 64.0193C93.9976 64.0242 95.941 65.3246 95.941 67.2921C95.941 68.3702 95.3609 69.2403 94.4037 69.8108V72.9675H97.0093ZM88.2352 67.2921C88.2352 68.5587 89.4824 69.366 91.3339 69.366C93.1709 69.366 94.4472 68.5587 94.4472 67.2921C94.4472 66.0062 93.1709 65.2279 91.3339 65.2327C89.4824 65.2279 88.2352 66.0062 88.2352 67.2921ZM89.8256 72.9675H92.8664V70.3957C92.3926 70.4972 91.8802 70.5504 91.3339 70.5504C90.7973 70.5504 90.2946 70.4972 89.8256 70.3957V72.9675Z" fill="#9A9A9A"/>
</svg>
