<svg width="24" height="24" viewBox="0 0 24 24" fill="none" xmlns="http://www.w3.org/2000/svg">
<mask id="path-1-inside-1_408_3595" fill="white">
<path d="M16 7C16 9.20914 14.2091 11 12 11C9.79086 11 8 9.20914 8 7C8 4.79086 9.79086 3 12 3C14.2091 3 16 4.79086 16 7Z"/>
</mask>
<path d="M16 7C16 9.20914 14.2091 11 12 11C9.79086 11 8 9.20914 8 7C8 4.79086 9.79086 3 12 3C14.2091 3 16 4.79086 16 7Z" fill="#B3B3B3"/>
<path d="M14.5 7C14.5 8.38071 13.3807 9.5 12 9.5V12.5C15.0376 12.5 17.5 10.0376 17.5 7H14.5ZM12 9.5C10.6193 9.5 9.5 8.38071 9.5 7H6.5C6.5 10.0376 8.96243 12.5 12 12.5V9.5ZM9.5 7C9.5 5.61929 10.6193 4.5 12 4.5V1.5C8.96243 1.5 6.5 3.96243 6.5 7H9.5ZM12 4.5C13.3807 4.5 14.5 5.61929 14.5 7H17.5C17.5 3.96243 15.0376 1.5 12 1.5V4.5Z" fill="#B3B3B3" mask="url(#path-1-inside-1_408_3595)"/>
<path d="M18.7031 20C19.4537 20 19.9368 19.2038 19.59 18.538L16.9854 13.538C16.8132 13.2074 16.4713 13 16.0985 13L7.90149 13C7.52869 13 7.18683 13.2074 7.0146 13.538L4.41002 18.538C4.06323 19.2038 4.54625 20 5.2969 20L11.9953 20L18.7031 20Z" fill="#B3B3B3" stroke="#B3B3B3" stroke-width="2"/>
</svg>
