<svg width="24" height="24" viewBox="0 0 24 24" fill="none" xmlns="http://www.w3.org/2000/svg">
<mask id="path-1-inside-1_408_3555" fill="white">
<path fill-rule="evenodd" clip-rule="evenodd" d="M17.8255 13.5823C19.5196 11.2212 19.2783 7.98545 17.2525 5.90186L17.0216 5.66435C14.272 2.83629 9.72997 2.83727 6.98164 5.66652L6.75297 5.90193C4.7288 7.98569 4.48822 11.2202 6.18183 13.5805L11.2148 20.5946C11.3973 20.849 11.6912 20.9998 12.0043 20.9998C12.3174 20.9998 12.6113 20.849 12.7938 20.5946L17.8255 13.5823ZM12 12C13.1046 12 14 11.1046 14 10C14 8.89543 13.1046 8 12 8C10.8954 8 10 8.89543 10 10C10 11.1046 10.8954 12 12 12Z"/>
</mask>
<path fill-rule="evenodd" clip-rule="evenodd" d="M17.8255 13.5823C19.5196 11.2212 19.2783 7.98545 17.2525 5.90186L17.0216 5.66435C14.272 2.83629 9.72997 2.83727 6.98164 5.66652L6.75297 5.90193C4.7288 7.98569 4.48822 11.2202 6.18183 13.5805L11.2148 20.5946C11.3973 20.849 11.6912 20.9998 12.0043 20.9998C12.3174 20.9998 12.6113 20.849 12.7938 20.5946L17.8255 13.5823ZM12 12C13.1046 12 14 11.1046 14 10C14 8.89543 13.1046 8 12 8C10.8954 8 10 8.89543 10 10C10 11.1046 10.8954 12 12 12Z" fill="#B3B3B3"/>
<path d="M17.2525 5.90186L18.328 4.85624V4.85624L17.2525 5.90186ZM17.8255 13.5823L16.6067 12.7078L17.8255 13.5823ZM17.0216 5.66435L15.9461 6.70998L15.9461 6.70998L17.0216 5.66435ZM6.98164 5.66652L8.05758 6.71168L8.05758 6.71168L6.98164 5.66652ZM6.75297 5.90193L5.67703 4.85677L5.67703 4.85677L6.75297 5.90193ZM6.18183 13.5805L4.96311 14.455H4.96311L6.18183 13.5805ZM11.2148 20.5946L12.4335 19.7201H12.4335L11.2148 20.5946ZM12.7938 20.5946L11.5751 19.7201L11.5751 19.7201L12.7938 20.5946ZM16.177 6.94749C17.6963 8.51018 17.8774 10.937 16.6067 12.7078L19.0442 14.4568C21.1619 11.5055 20.8602 7.46072 18.328 4.85624L16.177 6.94749ZM15.9461 6.70998L16.177 6.94749L18.328 4.85624L18.0971 4.61872L15.9461 6.70998ZM8.05758 6.71168C10.217 4.4887 13.7857 4.48793 15.9461 6.70998L18.0971 4.61872C14.7583 1.18465 9.24297 1.18584 5.90571 4.62136L8.05758 6.71168ZM7.8289 6.94709L8.05758 6.71168L5.90571 4.62136L5.67703 4.85677L7.8289 6.94709ZM7.40055 12.706C6.13034 10.9358 6.31078 8.50991 7.8289 6.94709L5.67703 4.85677C3.14683 7.46147 2.84609 11.5047 4.96311 14.455L7.40055 12.706ZM12.4335 19.7201L7.40055 12.706L4.96311 14.455L9.99605 21.4691L12.4335 19.7201ZM12.0043 19.4998C12.1745 19.4998 12.3343 19.5818 12.4335 19.7201L9.99605 21.4691C10.4603 22.1161 11.2079 22.4998 12.0043 22.4998V19.4998ZM11.5751 19.7201C11.6743 19.5818 11.8341 19.4998 12.0043 19.4998V22.4998C12.8007 22.4998 13.5482 22.1161 14.0125 21.4691L11.5751 19.7201ZM16.6067 12.7078L11.5751 19.7201L14.0125 21.4691L19.0442 14.4568L16.6067 12.7078ZM12.5 10C12.5 10.2761 12.2761 10.5 12 10.5V13.5C13.933 13.5 15.5 11.933 15.5 10H12.5ZM12 9.5C12.2761 9.5 12.5 9.72386 12.5 10H15.5C15.5 8.067 13.933 6.5 12 6.5V9.5ZM11.5 10C11.5 9.72386 11.7239 9.5 12 9.5V6.5C10.067 6.5 8.5 8.067 8.5 10H11.5ZM12 10.5C11.7239 10.5 11.5 10.2761 11.5 10H8.5C8.5 11.933 10.067 13.5 12 13.5V10.5Z" fill="#B3B3B3" mask="url(#path-1-inside-1_408_3555)"/>
</svg>
