<svg width="137" height="26" viewBox="0 0 137 26" fill="none" xmlns="http://www.w3.org/2000/svg">
<path d="M0 24.68H24V0.68H0V24.68ZM39.8906 4.92969C44.4727 4.92969 47.918 7.25 47.9297 10.7656C47.918 13.9883 45.1992 16.1445 41.3672 16.5664V20.2109H49.6875V22.6719H30.1641V20.2109H38.3906V16.5664C34.582 16.1328 31.875 13.9766 31.875 10.7656C31.875 7.25 35.3086 4.92969 39.8906 4.92969ZM34.8281 10.7656C34.8281 13.0156 36.9023 14.2695 39.8906 14.2812C42.8906 14.2695 44.9648 13.0156 44.9766 10.7656C44.9648 8.63281 42.8906 7.30859 39.8906 7.32031C36.9023 7.30859 34.8281 8.63281 34.8281 10.7656ZM68.1562 8.14062V10.5078H53.3203V4.08594H56.2969V8.14062H68.1562ZM50.8828 14.3047V11.9375H70.4062V14.3047H50.8828ZM53.1094 17.8906V15.5938H68.0625V21.2656H56.1562V22.625H68.7188V24.9219H53.1562V19.1094H65.0859V17.8906H53.1094ZM78.5625 5.25781C81.9492 5.24609 84.457 7.42578 84.4688 10.4844C84.457 13.5547 81.9492 15.7227 78.5625 15.7344C75.1992 15.7227 72.6211 13.5547 72.6328 10.4844C72.6211 7.42578 75.1992 5.24609 78.5625 5.25781ZM71.7422 18.4062C75.5508 18.418 80.8242 18.3711 85.3828 17.7266L85.6172 19.8828C80.8828 20.8086 75.8203 20.8438 72.0938 20.8438L71.7422 18.4062ZM75.6094 10.4844C75.5977 12.1719 76.875 13.1445 78.5625 13.1328C80.2617 13.1445 81.5508 12.1719 81.5625 10.4844C81.5508 8.82031 80.2617 7.83594 78.5625 7.83594C76.875 7.83594 75.5977 8.82031 75.6094 10.4844ZM86.6016 25.2031V3.82812H89.5781V25.2031H86.6016ZM103.992 4.46094C107.238 4.44922 109.676 6.48828 109.688 9.33594C109.676 12.1602 107.238 14.1758 103.992 14.1875C100.699 14.1758 98.25 12.1602 98.25 9.33594C98.25 6.48828 100.699 4.44922 103.992 4.46094ZM101.156 9.33594C101.133 10.8594 102.34 11.7617 103.992 11.7734C105.609 11.7617 106.793 10.8594 106.805 9.33594C106.793 7.80078 105.609 6.89844 103.992 6.89844C102.352 6.89844 101.133 7.80078 101.156 9.33594ZM101.461 17.7031V15.4062H115.781V21.1953H104.438V22.5781H116.367V24.9219H101.508V19.0156H112.805V17.7031H101.461ZM112.781 14.5156V3.82812H115.781V14.5156H112.781ZM136.641 3.82812V16.4844H133.664V11.4453H130.336V9.03125H133.664V3.82812H136.641ZM118.523 14.1406C122.016 12.9688 123.609 10.1797 123.68 7.50781H119.391V5.11719H130.969V7.50781H126.727C126.785 9.99219 128.309 12.5 131.625 13.6016L130.148 15.9453C127.805 15.1836 126.176 13.6367 125.25 11.7266C124.312 13.8945 122.602 15.6406 120.07 16.5078L118.523 14.1406ZM122.016 21.0781C122.016 18.4883 124.805 16.9648 129.352 16.9531C133.91 16.9648 136.699 18.4883 136.711 21.0781C136.699 23.668 133.91 25.1797 129.352 25.1797C124.805 25.1797 122.016 23.668 122.016 21.0781ZM124.992 21.0781C124.992 22.2969 126.527 22.9062 129.352 22.9062C132.188 22.9062 133.723 22.2969 133.734 21.0781C133.723 19.8477 132.188 19.2383 129.352 19.25C126.527 19.2383 124.992 19.8477 124.992 21.0781Z" fill="#121212"/>
</svg>
