<svg width="345" height="56" viewBox="0 0 345 56" fill="none" xmlns="http://www.w3.org/2000/svg">
<path d="M124.1 15.02C125.52 15.02 126.42 13.2 126.42 10.28C126.42 7.38 125.52 5.56 124.1 5.56C122.7 5.56 121.78 7.38 121.78 10.28C121.78 13.2 122.7 15.02 124.1 15.02ZM124.1 4.04C126.44 4.04 127.94 6.44 127.94 10.28C127.94 14.14 126.44 16.54 124.1 16.54C121.78 16.54 120.28 14.14 120.28 10.28C120.28 6.44 121.78 4.04 124.1 4.04ZM133.74 2.54H135.3V20.48H133.74V10.98H131.32V19.6H129.78V2.94H131.32V9.64H133.74V2.54ZM148.778 7.78V4.36H144.318V7.78H148.778ZM142.678 7.78V4.36H139.958V3.1H153.118V4.36H150.418V7.78H153.058V9.04H140.018V7.78H142.678ZM142.058 17.36V19.04H153.138V20.28H140.458V16.18H150.978V14.64H140.398V13.42H152.598V17.36H142.058ZM138.438 10.54H154.678V11.84H138.438V10.54ZM171.422 16.92H178.762V18.26H162.462V16.92H169.762V13.54H164.502V8H175.142V5.2H164.462V3.86H176.742V9.32H166.122V12.22H177.162V13.54H171.422V16.92ZM193.32 6.24V5.78H182.64V4.44H194.94V6.24C194.94 8.52 194.94 11.1 194.24 14.98L192.6 14.8C193.32 11.14 193.32 8.46 193.32 6.24ZM180.9 16.5H197.12V17.86H180.9V16.5ZM213.999 2.56V15.66H212.359V2.56H213.999ZM201.299 8.2C201.299 9.98 202.619 11.22 204.359 11.22C206.139 11.22 207.459 9.98 207.459 8.2C207.459 6.46 206.139 5.22 204.359 5.22C202.619 5.22 201.299 6.46 201.299 8.2ZM209.059 8.2C209.059 10.8 207.039 12.64 204.359 12.64C201.699 12.64 199.699 10.8 199.699 8.2C199.699 5.62 201.699 3.8 204.359 3.8C207.039 3.8 209.059 5.62 209.059 8.2ZM204.099 18.74H214.539V20.08H202.459V14.32H204.099V18.74Z" fill="#121212"/>
<rect x="0.5" y="2.5" width="344" height="53" rx="9.5" fill="#121212"/>
<rect x="0.5" y="2.5" width="344" height="53" rx="9.5" stroke="white"/>
<path d="M97.7314 21.5594C100.038 21.5594 101.537 23.9282 101.55 27.7127C101.537 31.518 100.038 33.9006 97.7314 33.8936C95.4523 33.9006 93.9675 31.518 93.9675 27.7127C93.9675 23.9282 95.4523 21.5594 97.7314 21.5594ZM95.6941 27.7127C95.6802 30.5028 96.4744 32.1395 97.7314 32.1257C99.0228 32.1395 99.8239 30.5028 99.8239 27.7127C99.8239 24.9296 99.0228 23.2997 97.7314 23.2997C96.4744 23.2997 95.6802 24.9296 95.6941 27.7127ZM103.125 36.7942V20.4959H104.886V27.0083H107.041V20.1575H108.823V37.6575H107.041V28.5414H104.886V36.7942H103.125ZM125.514 20.6823V22.0981H122.965V25.1229H125.438V26.5387H112.592V25.1229H115.072V22.0981H112.517V20.6823H125.514ZM111.059 29.308V27.8301H127.012V29.308H111.059ZM112.958 32.0428V30.6754H124.989V34.6671H114.809V36.0829H125.493V37.4917H112.993V33.355H123.166V32.0428H112.958ZM116.916 25.1229H121.108V22.0981H116.916V25.1229ZM148.269 20.1575V37.6575H146.508V20.1575H148.269ZM133.124 32.6022C136.839 30.3992 138.621 27.4503 138.939 23.8591H133.987V22.3329H140.783C140.783 23.2238 140.713 24.1008 140.575 24.9434H142.923V20.6064H144.691V36.808H142.923V30.8412H139.933V29.3218H142.923V26.4627H140.23C139.388 29.4047 137.523 31.9599 134.229 33.9213L133.124 32.6022ZM165.098 20.1575V30.5718H163.247V26.145H159.981V24.6188H163.247V20.1575H165.098ZM150.519 28.9972C153.227 28.0442 154.891 25.6823 154.891 23.2652V22.8785H151.093V21.366H160.54V22.8785H156.769V23.2514C156.769 25.4682 158.351 27.6229 160.989 28.5138L160.043 29.9917C158.075 29.308 156.631 27.9061 155.872 26.1796C155.105 28.134 153.572 29.7017 151.479 30.4682L150.519 28.9972ZM153.323 34.3633C153.309 32.2776 155.561 31.0622 159.235 31.0622C162.902 31.0622 165.146 32.2776 165.153 34.3633C165.146 36.442 162.902 37.6436 159.235 37.6575C155.561 37.6436 153.309 36.442 153.323 34.3633ZM155.16 34.3633C155.146 35.5373 156.673 36.2141 159.235 36.2003C161.79 36.2141 163.309 35.5373 163.316 34.3633C163.309 33.1754 161.79 32.4986 159.235 32.4986C156.673 32.4986 155.146 33.1754 155.16 34.3633ZM175.76 21.2072C179.434 21.2141 182.231 23.1547 182.231 26.0967C182.231 29.0525 179.434 30.9931 175.76 30.9793C172.1 30.9931 169.31 29.0525 169.31 26.0967C169.31 23.1547 172.1 21.2141 175.76 21.2072ZM167.798 35.3923V33.8591H183.813V35.3923H167.798ZM171.092 26.0967C171.085 28.1409 173.081 29.4599 175.76 29.4599C178.44 29.4599 180.422 28.1409 180.422 26.0967C180.422 24.0732 178.44 22.7058 175.76 22.7196C173.081 22.7058 171.085 24.0732 171.092 26.0967ZM201.098 34.018V35.558H185.083V34.018H192.127V30.9378H187.03V25.3715H197.307V22.913H186.996V21.4006H199.137V26.8633H188.874V29.4185H199.544V30.9378H193.964V34.018H201.098ZM213.673 24.6119C213.66 27.8094 215.586 31.0276 218.3 32.2224L217.182 33.7003C215.172 32.7403 213.584 30.7721 212.762 28.3757C211.954 30.9378 210.345 33.058 208.252 34.0732L207.106 32.5262C209.861 31.297 211.795 27.9544 211.809 24.6119V21.6146H213.673V24.6119ZM219.882 37.692V20.1575H221.747V37.692H219.882ZM230.641 23.2997C230.641 25.5373 232.188 27.6644 234.867 28.5622L233.921 29.9986C231.939 29.3149 230.496 27.9475 229.736 26.2348C228.97 28.1202 227.45 29.605 225.392 30.3301L224.398 28.8936C227.126 27.9613 228.776 25.6961 228.79 23.2928V22.8163H224.936V21.3177H234.418V22.8163H230.641V23.2997ZM226.718 33.0718V31.5732H238.286V37.6575H236.428V33.0718H226.718ZM236.428 30.703V20.1575H238.286V24.6533H240.82V26.221H238.286V30.703H236.428ZM255.454 20.1575V27.25H258.258V28.7901H255.454V37.6575H253.617V20.1575H255.454ZM241.724 24.4116V22.8992H246.041V20.3854H247.891V22.8992H252.09V24.4116H241.724ZM242.622 29.7776C242.615 27.3881 244.452 25.703 246.98 25.703C249.48 25.703 251.317 27.3881 251.324 29.7776C251.317 32.174 249.48 33.8384 246.98 33.8453C244.452 33.8384 242.615 32.174 242.622 29.7776ZM244.397 29.7776C244.383 31.2901 245.481 32.3052 246.98 32.2983C248.458 32.3052 249.542 31.2901 249.556 29.7776C249.542 28.2721 248.458 27.2362 246.98 27.2362C245.481 27.2362 244.383 28.2721 244.397 29.7776ZM273.65 20.1575V37.6575H271.786V20.1575H273.65ZM259.272 32.9682C263.927 30.7583 266.192 27.6022 266.558 23.5207H260.121V22.0428H268.45C268.436 27.1602 266.261 31.6008 260.253 34.4669L259.272 32.9682Z" fill="white"/>
<rect width="24" height="24" transform="translate(63 17)" fill="#121212"/>
<path d="M84.2808 35.424C83.933 36.2275 83.5213 36.9672 83.0442 37.6472C82.394 38.5743 81.8616 39.216 81.4513 39.5724C80.8153 40.1573 80.1338 40.4568 79.4041 40.4739C78.8802 40.4739 78.2485 40.3248 77.513 40.0224C76.7752 39.7214 76.0972 39.5724 75.4772 39.5724C74.827 39.5724 74.1296 39.7214 73.3837 40.0224C72.6366 40.3248 72.0348 40.4824 71.5747 40.498C70.8749 40.5278 70.1774 40.2197 69.4812 39.5724C69.0368 39.1848 68.481 38.5204 67.8151 37.5791C67.1007 36.5739 66.5134 35.4084 66.0533 34.0795C65.5605 32.6442 65.3135 31.2543 65.3135 29.9087C65.3135 28.3673 65.6465 27.0379 66.3137 25.9238C66.838 25.029 67.5355 24.3231 68.4084 23.8049C69.2814 23.2867 70.2247 23.0227 71.2405 23.0058C71.7963 23.0058 72.5252 23.1777 73.431 23.5156C74.3342 23.8546 74.9141 24.0265 75.1684 24.0265C75.3585 24.0265 76.0028 23.8255 77.0949 23.4247C78.1278 23.0531 78.9995 22.8992 79.7136 22.9598C81.6487 23.1159 83.1024 23.8788 84.0693 25.253C82.3386 26.3016 81.4826 27.7703 81.4996 29.6544C81.5152 31.122 82.0476 32.3432 83.0939 33.3129C83.5681 33.7629 84.0977 34.1107 84.6868 34.3578C84.5591 34.7283 84.4242 35.0832 84.2808 35.424ZM79.8428 17.9601C79.8428 19.1104 79.4226 20.1844 78.5849 21.1785C77.5741 22.3602 76.3514 23.0431 75.0256 22.9354C75.0087 22.7974 74.9989 22.6521 74.9989 22.4995C74.9989 21.3953 75.4796 20.2135 76.3333 19.2472C76.7595 18.758 77.3015 18.3512 77.9588 18.0267C78.6147 17.7071 79.2352 17.5303 79.8187 17.5C79.8357 17.6538 79.8428 17.8076 79.8428 17.9601V17.9601Z" fill="white"/>
</svg>
