<svg width="24" height="24" viewBox="0 0 24 24" fill="none" xmlns="http://www.w3.org/2000/svg">
<rect x="19" y="5" width="14" height="14" rx="1" transform="rotate(90 19 5)" fill="#121212" stroke="white" stroke-width="2"/>
<rect x="5" y="5" width="14" height="3" fill="white"/>
<mask id="path-3-inside-1_271_1901" fill="white">
<path d="M7.5 10H9.5V11H7.5V10Z"/>
</mask>
<path d="M7.5 10V9H6.5V10H7.5ZM9.5 10H10.5V9H9.5V10ZM9.5 11V12H10.5V11H9.5ZM7.5 11H6.5V12H7.5V11ZM7.5 11H9.5V9H7.5V11ZM8.5 10V11H10.5V10H8.5ZM9.5 10H7.5V12H9.5V10ZM8.5 11V10H6.5V11H8.5Z" fill="white" mask="url(#path-3-inside-1_271_1901)"/>
<mask id="path-5-inside-2_271_1901" fill="white">
<path d="M11 10H13V11H11V10Z"/>
</mask>
<path d="M11 10V9H10V10H11ZM13 10H14V9H13V10ZM13 11V12H14V11H13ZM11 11H10V12H11V11ZM11 11H13V9H11V11ZM12 10V11H14V10H12ZM13 10H11V12H13V10ZM12 11V10H10V11H12Z" fill="white" mask="url(#path-5-inside-2_271_1901)"/>
<mask id="path-7-inside-3_271_1901" fill="white">
<path d="M14.5 10H16.5V11H14.5V10Z"/>
</mask>
<path d="M14.5 10V9H13.5V10H14.5ZM16.5 10H17.5V9H16.5V10ZM16.5 11V12H17.5V11H16.5ZM14.5 11H13.5V12H14.5V11ZM14.5 11H16.5V9H14.5V11ZM15.5 10V11H17.5V10H15.5ZM16.5 10H14.5V12H16.5V10ZM15.5 11V10H13.5V11H15.5Z" fill="white" mask="url(#path-7-inside-3_271_1901)"/>
<mask id="path-9-inside-4_271_1901" fill="white">
<path d="M7.5 12.3999H9.5V13.3999H7.5V12.3999Z"/>
</mask>
<path d="M7.5 12.3999V11.3999H6.5V12.3999H7.5ZM9.5 12.3999H10.5V11.3999H9.5V12.3999ZM9.5 13.3999V14.3999H10.5V13.3999H9.5ZM7.5 13.3999H6.5V14.3999H7.5V13.3999ZM7.5 13.3999H9.5V11.3999H7.5V13.3999ZM8.5 12.3999V13.3999H10.5V12.3999H8.5ZM9.5 12.3999H7.5V14.3999H9.5V12.3999ZM8.5 13.3999V12.3999H6.5V13.3999H8.5Z" fill="white" mask="url(#path-9-inside-4_271_1901)"/>
<mask id="path-11-inside-5_271_1901" fill="white">
<path d="M11 12.3999H13V13.3999H11V12.3999Z"/>
</mask>
<path d="M11 12.3999V11.3999H10V12.3999H11ZM13 12.3999H14V11.3999H13V12.3999ZM13 13.3999V14.3999H14V13.3999H13ZM11 13.3999H10V14.3999H11V13.3999ZM11 13.3999H13V11.3999H11V13.3999ZM12 12.3999V13.3999H14V12.3999H12ZM13 12.3999H11V14.3999H13V12.3999ZM12 13.3999V12.3999H10V13.3999H12Z" fill="white" mask="url(#path-11-inside-5_271_1901)"/>
<mask id="path-13-inside-6_271_1901" fill="white">
<path d="M14.5 12.3999H16.5V13.3999H14.5V12.3999Z"/>
</mask>
<path d="M14.5 12.3999V11.3999H13.5V12.3999H14.5ZM16.5 12.3999H17.5V11.3999H16.5V12.3999ZM16.5 13.3999V14.3999H17.5V13.3999H16.5ZM14.5 13.3999H13.5V14.3999H14.5V13.3999ZM14.5 13.3999H16.5V11.3999H14.5V13.3999ZM15.5 12.3999V13.3999H17.5V12.3999H15.5ZM16.5 12.3999H14.5V14.3999H16.5V12.3999ZM15.5 13.3999V12.3999H13.5V13.3999H15.5Z" fill="white" mask="url(#path-13-inside-6_271_1901)"/>
<mask id="path-15-inside-7_271_1901" fill="white">
<path d="M7.5 14.8H9.5V15.8H7.5V14.8Z"/>
</mask>
<path d="M7.5 14.8V13.8H6.5V14.8H7.5ZM9.5 14.8H10.5V13.8H9.5V14.8ZM9.5 15.8V16.8H10.5V15.8H9.5ZM7.5 15.8H6.5V16.8H7.5V15.8ZM7.5 15.8H9.5V13.8H7.5V15.8ZM8.5 14.8V15.8H10.5V14.8H8.5ZM9.5 14.8H7.5V16.8H9.5V14.8ZM8.5 15.8V14.8H6.5V15.8H8.5Z" fill="white" mask="url(#path-15-inside-7_271_1901)"/>
<mask id="path-17-inside-8_271_1901" fill="white">
<path d="M11 14.8H13V15.8H11V14.8Z"/>
</mask>
<path d="M11 14.8V13.8H10V14.8H11ZM13 14.8H14V13.8H13V14.8ZM13 15.8V16.8H14V15.8H13ZM11 15.8H10V16.8H11V15.8ZM11 15.8H13V13.8H11V15.8ZM12 14.8V15.8H14V14.8H12ZM13 14.8H11V16.8H13V14.8ZM12 15.8V14.8H10V15.8H12Z" fill="white" mask="url(#path-17-inside-8_271_1901)"/>
<mask id="path-19-inside-9_271_1901" fill="white">
<path d="M14.5 14.8H16.5V15.8H14.5V14.8Z"/>
</mask>
<path d="M14.5 14.8V13.8H13.5V14.8H14.5ZM16.5 14.8H17.5V13.8H16.5V14.8ZM16.5 15.8V16.8H17.5V15.8H16.5ZM14.5 15.8H13.5V16.8H14.5V15.8ZM14.5 15.8H16.5V13.8H14.5V15.8ZM15.5 14.8V15.8H17.5V14.8H15.5ZM16.5 14.8H14.5V16.8H16.5V14.8ZM15.5 15.8V14.8H13.5V15.8H15.5Z" fill="white" mask="url(#path-19-inside-9_271_1901)"/>
</svg>
