<svg width="100" height="100" viewBox="0 0 100 100" fill="none" xmlns="http://www.w3.org/2000/svg">
<circle cx="50" cy="50" r="50" fill="#B3B3B3"/>
<mask id="path-2-inside-1_676_3602" fill="white">
<path fill-rule="evenodd" clip-rule="evenodd" d="M50 32C47.7909 32 46 33.7909 46 36V38H36C33.7909 38 32 39.7909 32 42V64C32 66.2091 33.7909 68 36 68H64C66.2091 68 68 66.2091 68 64V42C68 39.7909 66.2091 38 64 38H62V36C62 33.7909 60.2091 32 58 32H50Z"/>
</mask>
<path d="M46 38V40H48V38H46ZM62 38H60V40H62V38ZM48 36C48 34.8954 48.8954 34 50 34V30C46.6863 30 44 32.6863 44 36H48ZM48 38V36H44V38H48ZM36 40H46V36H36V40ZM34 42C34 40.8954 34.8954 40 36 40V36C32.6863 36 30 38.6863 30 42H34ZM34 64V42H30V64H34ZM36 66C34.8954 66 34 65.1046 34 64H30C30 67.3137 32.6863 70 36 70V66ZM64 66H36V70H64V66ZM66 64C66 65.1046 65.1046 66 64 66V70C67.3137 70 70 67.3137 70 64H66ZM66 42V64H70V42H66ZM64 40C65.1046 40 66 40.8954 66 42H70C70 38.6863 67.3137 36 64 36V40ZM62 40H64V36H62V40ZM60 36V38H64V36H60ZM58 34C59.1046 34 60 34.8954 60 36H64C64 32.6863 61.3137 30 58 30V34ZM50 34H58V30H50V34Z" fill="white" mask="url(#path-2-inside-1_676_3602)"/>
<circle cx="51" cy="53" r="8" stroke="white" stroke-width="2"/>
</svg>
