<svg width="40" height="25" viewBox="0 0 40 25" fill="none" xmlns="http://www.w3.org/2000/svg">
<path d="M27.9554 25C26.0064 25 24.3619 24.6124 23.0219 23.8372C21.693 23.062 20.6908 21.9657 20.0152 20.5482C19.3397 19.1307 19.002 17.464 19.002 15.5482C19.002 14.1639 19.1238 12.8239 19.3674 11.5282C19.6221 10.2326 19.9876 9.00886 20.4637 7.85714C20.9399 6.69435 21.5269 5.63677 22.2245 4.68439C22.9333 3.72093 23.7417 2.89037 24.6498 2.19269C25.5579 1.49502 26.5601 0.957918 27.6564 0.581395C28.7639 0.193798 29.9599 0 31.2445 0C33.9687 0 36.095 0.847176 37.6232 2.54153C39.1625 4.22481 39.9322 6.567 39.9322 9.56811C39.9322 10.9081 39.8214 12.2204 39.6 13.505C39.3785 14.7785 39.0462 15.9911 38.6033 17.1429C38.1603 18.2946 37.6066 19.3522 36.9422 20.3156C36.2777 21.268 35.5025 22.093 34.6166 22.7907C33.7306 23.4884 32.734 24.031 31.6265 24.4186C30.5191 24.8062 29.2954 25 27.9554 25ZM28.0551 22.5249C29.0075 22.5249 29.8879 22.3588 30.6963 22.0266C31.5047 21.6944 32.2356 21.2292 32.889 20.6312C33.5534 20.0332 34.1348 19.33 34.6332 18.5216C35.1426 17.7132 35.569 16.8272 35.9123 15.8638C36.2556 14.8893 36.5158 13.8649 36.693 12.7907C36.8702 11.7165 36.9588 10.6202 36.9588 9.50166C36.9588 7.28682 36.4327 5.56478 35.3807 4.33555C34.3397 3.10631 32.8945 2.49169 31.0451 2.49169C30.0928 2.49169 29.2068 2.65227 28.3873 2.97342C27.5678 3.2835 26.8203 3.732 26.1448 4.31894C25.4693 4.89479 24.8713 5.5814 24.3508 6.37874C23.8414 7.17608 23.4095 8.06202 23.0551 9.03654C22.7007 10 22.4294 11.0244 22.2412 12.1096C22.064 13.1949 21.9754 14.3189 21.9754 15.4817C21.9754 16.9435 22.2135 18.2004 22.6897 19.2525C23.1659 20.3045 23.858 21.113 24.7661 21.6777C25.6742 22.2425 26.7705 22.5249 28.0551 22.5249Z" fill="#121212"/>
<path d="M8.95349 25C7.00443 25 5.35991 24.6124 4.01993 23.8372C2.69103 23.062 1.68881 21.9657 1.01329 20.5482C0.337763 19.1307 0 17.464 0 15.5482C0 14.1639 0.121816 12.8239 0.365448 11.5282C0.620155 10.2326 0.985603 9.00886 1.46179 7.85714C1.93798 6.69435 2.52492 5.63677 3.22259 4.68439C3.93134 3.72093 4.73976 2.89037 5.64784 2.19269C6.55592 1.49502 7.55814 0.957918 8.65448 0.581395C9.7619 0.193798 10.9579 0 12.2425 0C14.9668 0 17.093 0.847176 18.6213 2.54153C20.1606 4.22481 20.9302 6.567 20.9302 9.56811C20.9302 10.9081 20.8195 12.2204 20.598 13.505C20.3765 14.7785 20.0443 15.9911 19.6013 17.1429C19.1584 18.2946 18.6047 19.3522 17.9402 20.3156C17.2757 21.268 16.5006 22.093 15.6146 22.7907C14.7287 23.4884 13.732 24.031 12.6246 24.4186C11.5172 24.8062 10.2935 25 8.95349 25ZM9.05316 22.5249C10.0055 22.5249 10.8859 22.3588 11.6944 22.0266C12.5028 21.6944 13.2337 21.2292 13.887 20.6312C14.5515 20.0332 15.1329 19.33 15.6312 18.5216C16.1406 17.7132 16.567 16.8272 16.9103 15.8638C17.2536 14.8893 17.5138 13.8649 17.691 12.7907C17.8682 11.7165 17.9568 10.6202 17.9568 9.50166C17.9568 7.28682 17.4308 5.56478 16.3787 4.33555C15.3378 3.10631 13.8926 2.49169 12.0432 2.49169C11.0908 2.49169 10.2049 2.65227 9.38538 2.97342C8.56589 3.2835 7.81838 3.732 7.14286 4.31894C6.46733 4.89479 5.86932 5.5814 5.34884 6.37874C4.83942 7.17608 4.40753 8.06202 4.05316 9.03654C3.69878 10 3.42746 11.0244 3.2392 12.1096C3.06202 13.1949 2.97342 14.3189 2.97342 15.4817C2.97342 16.9435 3.21152 18.2004 3.68771 19.2525C4.1639 20.3045 4.85604 21.113 5.76412 21.6777C6.6722 22.2425 7.76855 22.5249 9.05316 22.5249Z" fill="#121212"/>
<ellipse cx="13.5971" cy="17.2176" rx="3.21623" ry="4.50272" fill="#121212"/>
<ellipse cx="32.894" cy="17.2176" rx="3.21623" ry="4.50272" fill="#121212"/>
</svg>
