<svg width="345" height="56" viewBox="0 0 345 56" fill="none" xmlns="http://www.w3.org/2000/svg">
  <rect width="345" height="54" rx="10" fill="#EBE700"/>
  <path d="M117.511 19.9323C117.504 25.105 115.916 29.6837 109.534 32.8329L108.512 31.4378C111.682 29.884 113.568 27.9986 114.61 25.7818L108.885 26.3204L108.623 24.7182L115.17 24.2901C115.439 23.3854 115.591 22.4392 115.66 21.4448H109.521V19.9323H117.511ZM120.197 35.6367V18.1575H122.055V25.1464H124.769V26.6727H122.055V35.6367H120.197ZM134.796 19.9323C134.789 25.105 133.201 29.6837 126.82 32.8329L125.798 31.4378C128.967 29.884 130.853 27.9986 131.896 25.7818L126.17 26.3204L125.908 24.7182L132.455 24.2901C132.724 23.3854 132.876 22.4392 132.945 21.4448H126.806V19.9323H134.796ZM137.483 35.6367V18.1575H139.34V25.1464H142.054V26.6727H139.34V35.6367H137.483ZM150.956 19.221C154.699 19.2279 157.427 21.0718 157.427 23.8688C157.427 26.4862 155.134 28.2265 151.874 28.5028V31.942H159.008V33.4751H142.993V31.942H150.037V28.4959C146.791 28.2265 144.505 26.4862 144.505 23.8688C144.505 21.0718 147.233 19.2279 150.956 19.221ZM146.308 23.8688C146.308 25.8301 148.262 27.0456 150.956 27.0594C153.67 27.0456 155.617 25.8301 155.617 23.8688C155.617 21.9696 153.67 20.7196 150.956 20.7265C148.262 20.7196 146.308 21.9696 146.308 23.8688ZM176.293 32.018V33.558H160.278V32.018H167.322V28.9378H162.226V23.3715H172.502V20.913H162.191V19.4006H174.332V24.8633H164.07V27.4185H174.739V28.9378H169.159V32.018H176.293ZM188.869 22.6119C188.855 25.8094 190.782 29.0276 193.496 30.2224L192.377 31.7003C190.367 30.7403 188.779 28.7721 187.957 26.3757C187.149 28.9378 185.54 31.058 183.447 32.0732L182.301 30.5262C185.057 29.297 186.99 25.9544 187.004 22.6119V19.6146H188.869V22.6119ZM195.077 35.692V18.1575H196.942V35.692H195.077ZM205.836 21.2997C205.836 23.5373 207.383 25.6644 210.063 26.5622L209.117 27.9986C207.135 27.3149 205.691 25.9475 204.931 24.2348C204.165 26.1202 202.646 27.605 200.588 28.3301L199.593 26.8936C202.321 25.9613 203.972 23.6961 203.985 21.2928V20.8163H200.132V19.3177H209.614V20.8163H205.836V21.2997ZM201.914 31.0718V29.5732H213.481V35.6575H211.623V31.0718H201.914ZM211.623 28.703V18.1575H213.481V22.6533H216.016V24.221H213.481V28.703H211.623ZM230.649 18.1575V25.25H233.453V26.7901H230.649V35.6575H228.812V18.1575H230.649ZM216.92 22.4116V20.8992H221.236V18.3854H223.087V20.8992H227.286V22.4116H216.92ZM217.817 27.7776C217.811 25.3881 219.648 23.703 222.175 23.703C224.675 23.703 226.512 25.3881 226.519 27.7776C226.512 30.174 224.675 31.8384 222.175 31.8453C219.648 31.8384 217.811 30.174 217.817 27.7776ZM219.592 27.7776C219.579 29.2901 220.677 30.3052 222.175 30.2983C223.653 30.3052 224.737 29.2901 224.751 27.7776C224.737 26.2721 223.653 25.2362 222.175 25.2362C220.677 25.2362 219.579 26.2721 219.592 27.7776ZM248.846 18.1575V35.6575H246.981V18.1575H248.846ZM234.467 30.9682C239.122 28.7583 241.387 25.6022 241.753 21.5207H235.317V20.0428H243.645C243.632 25.1602 241.456 29.6008 235.448 32.4669L234.467 30.9682Z" fill="#121212"/>
  <g clip-path="url(#clip0_563_3139)">
    <path fill-rule="evenodd" clip-rule="evenodd" d="M87.0001 15.8C80.3723 15.8 75 19.9507 75 25.0698C75 28.2534 77.0779 31.06 80.2421 32.7293L78.9107 37.5927C78.7931 38.0224 79.2846 38.365 79.662 38.1159L85.4978 34.2643C85.9903 34.3118 86.4908 34.3396 87.0001 34.3396C93.6274 34.3396 99 30.1891 99 25.0698C99 19.9507 93.6274 15.8 87.0001 15.8" fill="black"/>
  </g>
  <defs>
    <clipPath id="clip0_563_3139">
      <rect width="24" height="24" fill="white" transform="translate(75 15)"/>
    </clipPath>
  </defs>
</svg>